#!OML:ASF I:\golf\golf\golf 2\Subject 1\2002-09-07\Subject1.ASF
:FULLY-SPECIFIED
:DEGREES
213
root -5.98465 17.8288 1.44077 1.39591 58.319 -17.1986
lowerback 5.91759 -9.79768 -9.69476
upperback 1.79238 -13.5457 1.13047
thorax 1.11717 -6.89219 6.8033
lowerneck -8.80756 18.9071 4.15863
upperneck 17.449 28.3161 -12.905
head 9.44597 12.4968 -1.39319
rclavicle -7.15625e-015 1.59028e-014
rhumerus 23.476 -22.6042 -70.8054
rradius 97.269
rwrist -25.2721
rhand -59.7559 12.0041
rfingers 7.12502
rthumb -31.9194 -15.218
lclavicle -7.15625e-015 1.59028e-014
lhumerus 100.829 -50.2445 50.2853
lradius 30.3122
lwrist 4.29919
lhand -2.99303 14.7931
lfingers 7.12502
lthumb -157.279 -136.525
rfemur -36.827 9.6403 20.4567
rtibia 30.4656
rfoot -6.7786 10.594
rtoes 5.9628
lfemur -19.9763 25.3806 -1.76602
ltibia 33.8409
lfoot -10.7174 9.11167
ltoes -17.2595
214
root -5.99228 17.8273 1.35245 1.16155 59.8982 -17.7985
lowerback 5.84399 -9.88105 -9.36933
upperback 1.93698 -13.6279 1.49358
thorax 1.3412 -6.95607 6.96996
lowerneck -9.0249 18.5905 4.31213
upperneck 17.6845 27.9596 -13.1438
head 9.59763 12.2922 -1.50351
rclavicle -5.08889e-014 -1.59028e-014
rhumerus 23.0679 -22.383 -71.8536
rradius 96.4464
rwrist -26.6141
rhand -58.9695 12.7696
rfingers 7.12502
rthumb -31.1703 -14.5992
lclavicle -5.08889e-014 -1.59028e-014
lhumerus 99.1702 -50.9313 51.6592
lradius 29.6582
lwrist 3.85628
lhand -2.70047 15.6729
lfingers 7.12502
lthumb -156.999 -135.68
rfemur -37.2865 9.27613 19.9592
rtibia 30.5782
rfoot -7.11735 9.0675
rtoes 3.25173
lfemur -21.3962 25.5548 -2.57147
ltibia 33.7832
lfoot -11.027 8.62147
ltoes -16.183
215
root -6.00142 17.8316 1.26475 0.783454 61.5348 -18.4385
lowerback 5.83904 -9.89139 -9.02496
upperback 2.14645 -13.6154 1.84212
thorax 1.57038 -6.97338 7.12314
lowerneck -9.40822 18.1889 4.42503
upperneck 17.9436 27.4869 -13.3583
head 9.76565 12.0236 -1.60838
rclavicle 7.4743e-014 4.77083e-014
rhumerus 22.4484 -22.3173 -72.6958
rradius 95.9168
rwrist -27.9039
rhand -58.3049 10.9193
rfingers 7.12502
rthumb -30.5367 -16.5695
lclavicle 7.4743e-014 4.77083e-014
lhumerus 97.7368 -51.6402 52.781
lradius 29.0128
lwrist 3.50416
lhand -2.57765 16.2638
lfingers 7.12502
lthumb -156.881 -135.103
rfemur -37.5901 8.81018 19.4959
rtibia 30.6783
rfoot -7.51094 7.59601
rtoes -0.318209
lfemur -22.7497 25.546 -3.3596
ltibia 33.731
lfoot -11.272 8.18191
ltoes -15.6573
216
root -6.01385 17.8344 1.17529 0.232259 63.3432 -19.1962
lowerback 5.91428 -9.9022 -8.59024
upperback 2.36086 -13.6042 2.12955
thorax 1.72423 -6.98335 7.18532
lowerneck -9.72707 17.7347 4.64708
upperneck 18.1263 26.9131 -13.6023
head 9.90412 11.7226 -1.76409
rclavicle 1.35174e-014 2.8625e-014
rhumerus 21.5603 -22.1883 -73.3325
rradius 95.5651
rwrist -28.9724
rhand -58.0908 10.4504
rfingers 7.12502
rthumb -30.3325 -17.0762
lclavicle 1.35174e-014 2.8625e-014
lhumerus 96.737 -52.3602 53.2146
lradius 28.4894
lwrist 3.62881
lhand -2.7432 16.9871
lfingers 7.12502
lthumb -157.04 -134.36
rfemur -37.8 8.21076 19.0446
rtibia 30.779
rfoot -7.81418 6.14614
rtoes -3.78937
lfemur -24.0702 25.291 -4.13935
ltibia 33.6768
lfoot -11.4499 7.68688
ltoes -15.5586
217
root -6.02657 17.8335 1.08347 -0.444074 65.2106 -20.1007
lowerback 5.91598 -9.95414 -8.01916
upperback 2.60802 -13.6324 2.34475
thorax 1.90928 -7.00877 7.08548
lowerneck -10.2011 17.2984 4.93391
upperneck 18.4016 26.3391 -13.7307
head 10.0915 11.4197 -1.88019
rclavicle 1.47101e-013 6.36111e-015
rhumerus 20.6696 -22.0086 -74.1615
rradius 94.9789
rwrist -29.7382
rhand -58.2532 11.7769
rfingers 7.12502
rthumb -30.4874 -15.721
lclavicle 1.47101e-013 6.36111e-015
lhumerus 95.5233 -53.1297 53.7243
lradius 28.0389
lwrist 3.66194
lhand -3.06435 17.9906
lfingers 7.12502
lthumb -157.348 -133.319
rfemur -38.0151 7.71881 18.5297
rtibia 30.9038
rfoot -8.00503 4.55439
rtoes -6.78249
lfemur -25.4129 24.9975 -4.93975
ltibia 33.5947
lfoot -11.5715 7.06609
ltoes -15.3152
